<?xml version="1.0" encoding="UTF-8" standalone="no"?>
<!DOCTYPE svg PUBLIC "-//W3C//DTD SVG 1.1//EN"
 "http://www.w3.org/Graphics/SVG/1.1/DTD/svg11.dtd">
<!-- Generated by graphviz version 2.43.0 (0)
 -->
<!-- Title: %3 Pages: 1 -->
<svg width="1800pt" height="404pt"
 viewBox="0.00 0.00 1800.00 404.00" xmlns="http://www.w3.org/2000/svg" xmlns:xlink="http://www.w3.org/1999/xlink">
<g id="graph0" class="graph" transform="scale(1 1) rotate(0) translate(4 400)">
<title>%3</title>
<polygon fill="white" stroke="transparent" points="-4,4 -4,-400 1796,-400 1796,4 -4,4"/>
<!-- [root] aws_eip.mario_eip (expand) -->
<g id="node1" class="node">
<title>[root] aws_eip.mario_eip (expand)</title>
<polygon fill="none" stroke="black" points="557.5,-180 410.5,-180 410.5,-144 557.5,-144 557.5,-180"/>
<text text-anchor="middle" x="484" y="-158.3" font-family="Times,serif" font-size="14.00">aws_eip.mario_eip</text>
</g>
<!-- [root] provider[&quot;registry.terraform.io/hashicorp/aws&quot;] -->
<g id="node12" class="node">
<title>[root] provider[&quot;registry.terraform.io/hashicorp/aws&quot;]</title>
<polygon fill="none" stroke="black" points="811,-36 485.74,-18 811,0 1136.26,-18 811,-36"/>
<text text-anchor="middle" x="811" y="-14.3" font-family="Times,serif" font-size="14.00">provider[&quot;registry.terraform.io/hashicorp/aws&quot;]</text>
</g>
<!-- [root] aws_eip.mario_eip (expand)&#45;&gt;[root] provider[&quot;registry.terraform.io/hashicorp/aws&quot;] -->
<g id="edge1" class="edge">
<title>[root] aws_eip.mario_eip (expand)&#45;&gt;[root] provider[&quot;registry.terraform.io/hashicorp/aws&quot;]</title>
<path fill="none" stroke="black" d="M523.44,-143.87C584.68,-117.28 702.24,-66.23 766.45,-38.35"/>
<polygon fill="black" stroke="black" points="768.12,-41.43 775.9,-34.24 765.34,-35.01 768.12,-41.43"/>
</g>
<!-- [root] aws_eip_association.eip_assoc (expand) -->
<g id="node2" class="node">
<title>[root] aws_eip_association.eip_assoc (expand)</title>
<polygon fill="none" stroke="black" points="557.5,-252 326.5,-252 326.5,-216 557.5,-216 557.5,-252"/>
<text text-anchor="middle" x="442" y="-230.3" font-family="Times,serif" font-size="14.00">aws_eip_association.eip_assoc</text>
</g>
<!-- [root] aws_eip_association.eip_assoc (expand)&#45;&gt;[root] aws_eip.mario_eip (expand) -->
<g id="edge2" class="edge">
<title>[root] aws_eip_association.eip_assoc (expand)&#45;&gt;[root] aws_eip.mario_eip (expand)</title>
<path fill="none" stroke="black" d="M452.38,-215.7C457.26,-207.56 463.19,-197.69 468.58,-188.7"/>
<polygon fill="black" stroke="black" points="471.59,-190.48 473.74,-180.1 465.59,-186.88 471.59,-190.48"/>
</g>
<!-- [root] aws_instance.first_ec2 (expand) -->
<g id="node4" class="node">
<title>[root] aws_instance.first_ec2 (expand)</title>
<polygon fill="none" stroke="black" points="392,-180 216,-180 216,-144 392,-144 392,-180"/>
<text text-anchor="middle" x="304" y="-158.3" font-family="Times,serif" font-size="14.00">aws_instance.first_ec2</text>
</g>
<!-- [root] aws_eip_association.eip_assoc (expand)&#45;&gt;[root] aws_instance.first_ec2 (expand) -->
<g id="edge3" class="edge">
<title>[root] aws_eip_association.eip_assoc (expand)&#45;&gt;[root] aws_instance.first_ec2 (expand)</title>
<path fill="none" stroke="black" d="M408.24,-215.88C389.78,-206.51 366.72,-194.81 346.98,-184.8"/>
<polygon fill="black" stroke="black" points="348.39,-181.59 337.89,-180.19 345.22,-187.83 348.39,-181.59"/>
</g>
<!-- [root] aws_elb.first_load_balancer (expand) -->
<g id="node3" class="node">
<title>[root] aws_elb.first_load_balancer (expand)</title>
<polygon fill="none" stroke="black" points="1717,-252 1505,-252 1505,-216 1717,-216 1717,-252"/>
<text text-anchor="middle" x="1611" y="-230.3" font-family="Times,serif" font-size="14.00">aws_elb.first_load_balancer</text>
</g>
<!-- [root] aws_s3_bucket.first_s3 (expand) -->
<g id="node6" class="node">
<title>[root] aws_s3_bucket.first_s3 (expand)</title>
<polygon fill="none" stroke="black" points="1518.5,-180 1339.5,-180 1339.5,-144 1518.5,-144 1518.5,-180"/>
<text text-anchor="middle" x="1429" y="-158.3" font-family="Times,serif" font-size="14.00">aws_s3_bucket.first_s3</text>
</g>
<!-- [root] aws_elb.first_load_balancer (expand)&#45;&gt;[root] aws_s3_bucket.first_s3 (expand) -->
<g id="edge4" class="edge">
<title>[root] aws_elb.first_load_balancer (expand)&#45;&gt;[root] aws_s3_bucket.first_s3 (expand)</title>
<path fill="none" stroke="black" d="M1566.48,-215.88C1541.27,-206.18 1509.55,-193.98 1482.93,-183.74"/>
<polygon fill="black" stroke="black" points="1483.97,-180.39 1473.38,-180.07 1481.45,-186.92 1483.97,-180.39"/>
</g>
<!-- [root] var.available_tzs -->
<g id="node13" class="node">
<title>[root] var.available_tzs</title>
<polygon fill="none" stroke="black" points="1670,-180 1542,-180 1542,-144 1676,-144 1676,-174 1670,-180"/>
<polyline fill="none" stroke="black" points="1670,-180 1670,-174 "/>
<polyline fill="none" stroke="black" points="1676,-174 1670,-174 "/>
<text text-anchor="middle" x="1609" y="-158.3" font-family="Times,serif" font-size="14.00">var.available_tzs</text>
</g>
<!-- [root] aws_elb.first_load_balancer (expand)&#45;&gt;[root] var.available_tzs -->
<g id="edge5" class="edge">
<title>[root] aws_elb.first_load_balancer (expand)&#45;&gt;[root] var.available_tzs</title>
<path fill="none" stroke="black" d="M1610.51,-215.7C1610.29,-207.98 1610.02,-198.71 1609.77,-190.11"/>
<polygon fill="black" stroke="black" points="1613.27,-190 1609.49,-180.1 1606.28,-190.2 1613.27,-190"/>
</g>
<!-- [root] var.timeout -->
<g id="node18" class="node">
<title>[root] var.timeout</title>
<polygon fill="none" stroke="black" points="1786,-180 1694,-180 1694,-144 1792,-144 1792,-174 1786,-180"/>
<polyline fill="none" stroke="black" points="1786,-180 1786,-174 "/>
<polyline fill="none" stroke="black" points="1792,-174 1786,-174 "/>
<text text-anchor="middle" x="1743" y="-158.3" font-family="Times,serif" font-size="14.00">var.timeout</text>
</g>
<!-- [root] aws_elb.first_load_balancer (expand)&#45;&gt;[root] var.timeout -->
<g id="edge6" class="edge">
<title>[root] aws_elb.first_load_balancer (expand)&#45;&gt;[root] var.timeout</title>
<path fill="none" stroke="black" d="M1643.29,-215.88C1660.87,-206.55 1682.81,-194.92 1701.63,-184.94"/>
<polygon fill="black" stroke="black" points="1703.39,-187.97 1710.59,-180.19 1700.11,-181.78 1703.39,-187.97"/>
</g>
<!-- [root] data.aws_ami.app_ami (expand) -->
<g id="node10" class="node">
<title>[root] data.aws_ami.app_ami (expand)</title>
<polygon fill="none" stroke="black" points="496.5,-108 319.5,-108 319.5,-72 496.5,-72 496.5,-108"/>
<text text-anchor="middle" x="408" y="-86.3" font-family="Times,serif" font-size="14.00">data.aws_ami.app_ami</text>
</g>
<!-- [root] aws_instance.first_ec2 (expand)&#45;&gt;[root] data.aws_ami.app_ami (expand) -->
<g id="edge7" class="edge">
<title>[root] aws_instance.first_ec2 (expand)&#45;&gt;[root] data.aws_ami.app_ami (expand)</title>
<path fill="none" stroke="black" d="M329.44,-143.88C342.79,-134.89 359.32,-123.76 373.78,-114.03"/>
<polygon fill="black" stroke="black" points="376.12,-116.68 382.46,-108.19 372.21,-110.87 376.12,-116.68"/>
</g>
<!-- [root] var.size -->
<g id="node17" class="node">
<title>[root] var.size</title>
<polygon fill="none" stroke="black" points="289.5,-108 224.5,-108 224.5,-72 295.5,-72 295.5,-102 289.5,-108"/>
<polyline fill="none" stroke="black" points="289.5,-108 289.5,-102 "/>
<polyline fill="none" stroke="black" points="295.5,-102 289.5,-102 "/>
<text text-anchor="middle" x="260" y="-86.3" font-family="Times,serif" font-size="14.00">var.size</text>
</g>
<!-- [root] aws_instance.first_ec2 (expand)&#45;&gt;[root] var.size -->
<g id="edge8" class="edge">
<title>[root] aws_instance.first_ec2 (expand)&#45;&gt;[root] var.size</title>
<path fill="none" stroke="black" d="M293.12,-143.7C288.01,-135.56 281.8,-125.69 276.16,-116.7"/>
<polygon fill="black" stroke="black" points="279.04,-114.71 270.75,-108.1 273.11,-118.43 279.04,-114.71"/>
</g>
<!-- [root] aws_instance.second_ec2 (expand) -->
<g id="node5" class="node">
<title>[root] aws_instance.second_ec2 (expand)</title>
<polygon fill="none" stroke="black" points="260.5,-252 63.5,-252 63.5,-216 260.5,-216 260.5,-252"/>
<text text-anchor="middle" x="162" y="-230.3" font-family="Times,serif" font-size="14.00">aws_instance.second_ec2</text>
</g>
<!-- [root] aws_instance.second_ec2 (expand)&#45;&gt;[root] provider[&quot;registry.terraform.io/hashicorp/aws&quot;] -->
<g id="edge9" class="edge">
<title>[root] aws_instance.second_ec2 (expand)&#45;&gt;[root] provider[&quot;registry.terraform.io/hashicorp/aws&quot;]</title>
<path fill="none" stroke="black" d="M161.61,-215.83C161.88,-181.58 168.01,-105.19 215,-72 247.78,-48.85 458.11,-34.34 619.72,-26.47"/>
<polygon fill="black" stroke="black" points="619.99,-29.96 629.81,-25.98 619.65,-22.97 619.99,-29.96"/>
</g>
<!-- [root] var.env_names -->
<g id="node14" class="node">
<title>[root] var.env_names</title>
<polygon fill="none" stroke="black" points="116,-180 0,-180 0,-144 122,-144 122,-174 116,-180"/>
<polyline fill="none" stroke="black" points="116,-180 116,-174 "/>
<polyline fill="none" stroke="black" points="122,-174 116,-174 "/>
<text text-anchor="middle" x="61" y="-158.3" font-family="Times,serif" font-size="14.00">var.env_names</text>
</g>
<!-- [root] aws_instance.second_ec2 (expand)&#45;&gt;[root] var.env_names -->
<g id="edge10" class="edge">
<title>[root] aws_instance.second_ec2 (expand)&#45;&gt;[root] var.env_names</title>
<path fill="none" stroke="black" d="M137.29,-215.88C124.33,-206.89 108.27,-195.76 94.23,-186.03"/>
<polygon fill="black" stroke="black" points="96.02,-183.01 85.8,-180.19 92.03,-188.76 96.02,-183.01"/>
</g>
<!-- [root] aws_instance.second_ec2 (expand)&#45;&gt;[root] var.size -->
<g id="edge11" class="edge">
<title>[root] aws_instance.second_ec2 (expand)&#45;&gt;[root] var.size</title>
<path fill="none" stroke="black" d="M168.81,-215.69C176.56,-197.06 190.35,-167 207,-144 214.38,-133.81 223.74,-123.76 232.54,-115.19"/>
<polygon fill="black" stroke="black" points="235.2,-117.5 240.06,-108.08 230.39,-112.41 235.2,-117.5"/>
</g>
<!-- [root] aws_s3_bucket.first_s3 (expand)&#45;&gt;[root] provider[&quot;registry.terraform.io/hashicorp/aws&quot;] -->
<g id="edge12" class="edge">
<title>[root] aws_s3_bucket.first_s3 (expand)&#45;&gt;[root] provider[&quot;registry.terraform.io/hashicorp/aws&quot;]</title>
<path fill="none" stroke="black" d="M1424.83,-143.91C1418.77,-123.09 1405.37,-88.63 1380,-72 1347.67,-50.81 1143.88,-35.78 989.33,-27.26"/>
<polygon fill="black" stroke="black" points="989.4,-23.76 979.23,-26.71 989.02,-30.75 989.4,-23.76"/>
</g>
<!-- [root] aws_s3_bucket_policy.allow_elb_logging (expand) -->
<g id="node7" class="node">
<title>[root] aws_s3_bucket_policy.allow_elb_logging (expand)</title>
<polygon fill="none" stroke="black" points="1448.5,-252 1149.5,-252 1149.5,-216 1448.5,-216 1448.5,-252"/>
<text text-anchor="middle" x="1299" y="-230.3" font-family="Times,serif" font-size="14.00">aws_s3_bucket_policy.allow_elb_logging</text>
</g>
<!-- [root] aws_s3_bucket_policy.allow_elb_logging (expand)&#45;&gt;[root] aws_s3_bucket.first_s3 (expand) -->
<g id="edge13" class="edge">
<title>[root] aws_s3_bucket_policy.allow_elb_logging (expand)&#45;&gt;[root] aws_s3_bucket.first_s3 (expand)</title>
<path fill="none" stroke="black" d="M1330.8,-215.88C1348.11,-206.55 1369.72,-194.92 1388.26,-184.94"/>
<polygon fill="black" stroke="black" points="1389.93,-188.01 1397.08,-180.19 1386.61,-181.85 1389.93,-188.01"/>
</g>
<!-- [root] data.aws_elb_service_account.main (expand) -->
<g id="node11" class="node">
<title>[root] data.aws_elb_service_account.main (expand)</title>
<polygon fill="none" stroke="black" points="1370.5,-108 1101.5,-108 1101.5,-72 1370.5,-72 1370.5,-108"/>
<text text-anchor="middle" x="1236" y="-86.3" font-family="Times,serif" font-size="14.00">data.aws_elb_service_account.main</text>
</g>
<!-- [root] aws_s3_bucket_policy.allow_elb_logging (expand)&#45;&gt;[root] data.aws_elb_service_account.main (expand) -->
<g id="edge14" class="edge">
<title>[root] aws_s3_bucket_policy.allow_elb_logging (expand)&#45;&gt;[root] data.aws_elb_service_account.main (expand)</title>
<path fill="none" stroke="black" d="M1298.64,-215.75C1297.64,-197.18 1294.24,-167.16 1283,-144 1277.99,-133.66 1270.37,-123.82 1262.73,-115.47"/>
<polygon fill="black" stroke="black" points="1265.23,-113.03 1255.77,-108.27 1260.2,-117.89 1265.23,-113.03"/>
</g>
<!-- [root] aws_security_group.allow_tls (expand) -->
<g id="node8" class="node">
<title>[root] aws_security_group.allow_tls (expand)</title>
<polygon fill="none" stroke="black" points="800,-252 576,-252 576,-216 800,-216 800,-252"/>
<text text-anchor="middle" x="688" y="-230.3" font-family="Times,serif" font-size="14.00">aws_security_group.allow_tls</text>
</g>
<!-- [root] aws_security_group.allow_tls (expand)&#45;&gt;[root] aws_eip.mario_eip (expand) -->
<g id="edge15" class="edge">
<title>[root] aws_security_group.allow_tls (expand)&#45;&gt;[root] aws_eip.mario_eip (expand)</title>
<path fill="none" stroke="black" d="M638.36,-215.97C609.73,-206.14 573.55,-193.73 543.42,-183.39"/>
<polygon fill="black" stroke="black" points="544.46,-180.05 533.87,-180.11 542.19,-186.67 544.46,-180.05"/>
</g>
<!-- [root] var.vpn_ip -->
<g id="node19" class="node">
<title>[root] var.vpn_ip</title>
<polygon fill="none" stroke="black" points="658.5,-180 575.5,-180 575.5,-144 664.5,-144 664.5,-174 658.5,-180"/>
<polyline fill="none" stroke="black" points="658.5,-180 658.5,-174 "/>
<polyline fill="none" stroke="black" points="664.5,-174 658.5,-174 "/>
<text text-anchor="middle" x="620" y="-158.3" font-family="Times,serif" font-size="14.00">var.vpn_ip</text>
</g>
<!-- [root] aws_security_group.allow_tls (expand)&#45;&gt;[root] var.vpn_ip -->
<g id="edge17" class="edge">
<title>[root] aws_security_group.allow_tls (expand)&#45;&gt;[root] var.vpn_ip</title>
<path fill="none" stroke="black" d="M671.19,-215.7C662.87,-207.14 652.69,-196.66 643.61,-187.3"/>
<polygon fill="black" stroke="black" points="646.09,-184.84 636.62,-180.1 641.07,-189.72 646.09,-184.84"/>
</g>
<!-- [root] local.common_tags (expand) -->
<g id="node20" class="node">
<title>[root] local.common_tags (expand)</title>
<ellipse fill="none" stroke="black" cx="853" cy="-162" rx="170.87" ry="18"/>
<text text-anchor="middle" x="853" y="-158.3" font-family="Times,serif" font-size="14.00">[root] local.common_tags (expand)</text>
</g>
<!-- [root] aws_security_group.allow_tls (expand)&#45;&gt;[root] local.common_tags (expand) -->
<g id="edge16" class="edge">
<title>[root] aws_security_group.allow_tls (expand)&#45;&gt;[root] local.common_tags (expand)</title>
<path fill="none" stroke="black" d="M728.36,-215.88C751.36,-206.12 780.32,-193.83 804.54,-183.56"/>
<polygon fill="black" stroke="black" points="806.07,-186.71 813.91,-179.59 803.33,-180.27 806.07,-186.71"/>
</g>
<!-- [root] aws_security_group.allow_tls_dinamically (expand) -->
<g id="node9" class="node">
<title>[root] aws_security_group.allow_tls_dinamically (expand)</title>
<polygon fill="none" stroke="black" points="1131.5,-252 818.5,-252 818.5,-216 1131.5,-216 1131.5,-252"/>
<text text-anchor="middle" x="975" y="-230.3" font-family="Times,serif" font-size="14.00">aws_security_group.allow_tls_dinamically</text>
</g>
<!-- [root] aws_security_group.allow_tls_dinamically (expand)&#45;&gt;[root] provider[&quot;registry.terraform.io/hashicorp/aws&quot;] -->
<g id="edge19" class="edge">
<title>[root] aws_security_group.allow_tls_dinamically (expand)&#45;&gt;[root] provider[&quot;registry.terraform.io/hashicorp/aws&quot;]</title>
<path fill="none" stroke="black" d="M1002.34,-215.77C1014.11,-206.72 1026.62,-194.48 1033,-180 1039.45,-165.36 1041.07,-157.81 1033,-144 999.48,-86.66 928.91,-53.58 876.28,-36.03"/>
<polygon fill="black" stroke="black" points="877.27,-32.67 866.68,-32.93 875.12,-39.33 877.27,-32.67"/>
</g>
<!-- [root] var.security_group_ports -->
<g id="node16" class="node">
<title>[root] var.security_group_ports</title>
<polygon fill="none" stroke="black" points="1268,-180 1080,-180 1080,-144 1274,-144 1274,-174 1268,-180"/>
<polyline fill="none" stroke="black" points="1268,-180 1268,-174 "/>
<polyline fill="none" stroke="black" points="1274,-174 1268,-174 "/>
<text text-anchor="middle" x="1177" y="-158.3" font-family="Times,serif" font-size="14.00">var.security_group_ports</text>
</g>
<!-- [root] aws_security_group.allow_tls_dinamically (expand)&#45;&gt;[root] var.security_group_ports -->
<g id="edge20" class="edge">
<title>[root] aws_security_group.allow_tls_dinamically (expand)&#45;&gt;[root] var.security_group_ports</title>
<path fill="none" stroke="black" d="M1024.16,-215.97C1052.5,-206.14 1088.32,-193.73 1118.16,-183.39"/>
<polygon fill="black" stroke="black" points="1119.32,-186.69 1127.62,-180.11 1117.03,-180.08 1119.32,-186.69"/>
</g>
<!-- [root] aws_security_group.allow_tls_dinamically (expand)&#45;&gt;[root] local.common_tags (expand) -->
<g id="edge18" class="edge">
<title>[root] aws_security_group.allow_tls_dinamically (expand)&#45;&gt;[root] local.common_tags (expand)</title>
<path fill="none" stroke="black" d="M945.16,-215.88C928.94,-206.57 908.7,-194.96 891.33,-184.99"/>
<polygon fill="black" stroke="black" points="892.95,-181.89 882.54,-179.95 889.47,-187.96 892.95,-181.89"/>
</g>
<!-- [root] data.aws_ami.app_ami (expand)&#45;&gt;[root] provider[&quot;registry.terraform.io/hashicorp/aws&quot;] -->
<g id="edge21" class="edge">
<title>[root] data.aws_ami.app_ami (expand)&#45;&gt;[root] provider[&quot;registry.terraform.io/hashicorp/aws&quot;]</title>
<path fill="none" stroke="black" d="M496.94,-73.55C565.29,-61.68 659.07,-45.39 726.33,-33.71"/>
<polygon fill="black" stroke="black" points="727.22,-37.11 736.47,-31.95 726.02,-30.21 727.22,-37.11"/>
</g>
<!-- [root] data.aws_elb_service_account.main (expand)&#45;&gt;[root] provider[&quot;registry.terraform.io/hashicorp/aws&quot;] -->
<g id="edge22" class="edge">
<title>[root] data.aws_elb_service_account.main (expand)&#45;&gt;[root] provider[&quot;registry.terraform.io/hashicorp/aws&quot;]</title>
<path fill="none" stroke="black" d="M1132.58,-71.97C1060.95,-60.17 966.63,-44.63 898.68,-33.44"/>
<polygon fill="black" stroke="black" points="898.87,-29.93 888.43,-31.75 897.73,-36.83 898.87,-29.93"/>
</g>
<!-- [root] var.instance_type -->
<g id="node15" class="node">
<title>[root] var.instance_type</title>
<polygon fill="none" stroke="black" points="1696.5,-324 1561.5,-324 1561.5,-288 1702.5,-288 1702.5,-318 1696.5,-324"/>
<polyline fill="none" stroke="black" points="1696.5,-324 1696.5,-318 "/>
<polyline fill="none" stroke="black" points="1702.5,-318 1696.5,-318 "/>
<text text-anchor="middle" x="1632" y="-302.3" font-family="Times,serif" font-size="14.00">var.instance_type</text>
</g>
<!-- [root] output.arns (expand) -->
<g id="node21" class="node">
<title>[root] output.arns (expand)</title>
<ellipse fill="none" stroke="black" cx="162" cy="-306" rx="137.28" ry="18"/>
<text text-anchor="middle" x="162" y="-302.3" font-family="Times,serif" font-size="14.00">[root] output.arns (expand)</text>
</g>
<!-- [root] output.arns (expand)&#45;&gt;[root] aws_instance.second_ec2 (expand) -->
<g id="edge23" class="edge">
<title>[root] output.arns (expand)&#45;&gt;[root] aws_instance.second_ec2 (expand)</title>
<path fill="none" stroke="black" d="M162,-287.7C162,-279.98 162,-270.71 162,-262.11"/>
<polygon fill="black" stroke="black" points="165.5,-262.1 162,-252.1 158.5,-262.1 165.5,-262.1"/>
</g>
<!-- [root] output.eip (expand) -->
<g id="node22" class="node">
<title>[root] output.eip (expand)</title>
<ellipse fill="none" stroke="black" cx="448" cy="-306" rx="130.78" ry="18"/>
<text text-anchor="middle" x="448" y="-302.3" font-family="Times,serif" font-size="14.00">[root] output.eip (expand)</text>
</g>
<!-- [root] output.eip (expand)&#45;&gt;[root] aws_eip.mario_eip (expand) -->
<g id="edge24" class="edge">
<title>[root] output.eip (expand)&#45;&gt;[root] aws_eip.mario_eip (expand)</title>
<path fill="none" stroke="black" d="M372.5,-291.16C350.98,-283.35 329.89,-271.12 317,-252 308.06,-238.73 307.55,-228.91 317,-216 322.88,-207.96 366.47,-194.27 407.64,-182.82"/>
<polygon fill="black" stroke="black" points="408.76,-186.14 417.47,-180.11 406.9,-179.39 408.76,-186.14"/>
</g>
<!-- [root] output.mys3bucket (expand) -->
<g id="node23" class="node">
<title>[root] output.mys3bucket (expand)</title>
<ellipse fill="none" stroke="black" cx="1371" cy="-306" rx="172.77" ry="18"/>
<text text-anchor="middle" x="1371" y="-302.3" font-family="Times,serif" font-size="14.00">[root] output.mys3bucket (expand)</text>
</g>
<!-- [root] output.mys3bucket (expand)&#45;&gt;[root] aws_s3_bucket.first_s3 (expand) -->
<g id="edge25" class="edge">
<title>[root] output.mys3bucket (expand)&#45;&gt;[root] aws_s3_bucket.first_s3 (expand)</title>
<path fill="none" stroke="black" d="M1416.15,-288.57C1432.32,-280.24 1448.82,-268.34 1458,-252 1469.22,-232.03 1459.29,-207.07 1448.11,-188.67"/>
<polygon fill="black" stroke="black" points="1450.99,-186.69 1442.6,-180.22 1445.13,-190.51 1450.99,-186.69"/>
</g>
<!-- [root] provider[&quot;registry.terraform.io/hashicorp/aws&quot;] (close) -->
<g id="node24" class="node">
<title>[root] provider[&quot;registry.terraform.io/hashicorp/aws&quot;] (close)</title>
<ellipse fill="none" stroke="black" cx="888" cy="-306" rx="291.65" ry="18"/>
<text text-anchor="middle" x="888" y="-302.3" font-family="Times,serif" font-size="14.00">[root] provider[&quot;registry.terraform.io/hashicorp/aws&quot;] (close)</text>
</g>
<!-- [root] provider[&quot;registry.terraform.io/hashicorp/aws&quot;] (close)&#45;&gt;[root] aws_eip_association.eip_assoc (expand) -->
<g id="edge26" class="edge">
<title>[root] provider[&quot;registry.terraform.io/hashicorp/aws&quot;] (close)&#45;&gt;[root] aws_eip_association.eip_assoc (expand)</title>
<path fill="none" stroke="black" d="M786.8,-289.12C719.68,-278.58 631.32,-264.71 560.86,-253.65"/>
<polygon fill="black" stroke="black" points="561.02,-250.14 550.6,-252.04 559.93,-257.05 561.02,-250.14"/>
</g>
<!-- [root] provider[&quot;registry.terraform.io/hashicorp/aws&quot;] (close)&#45;&gt;[root] aws_elb.first_load_balancer (expand) -->
<g id="edge27" class="edge">
<title>[root] provider[&quot;registry.terraform.io/hashicorp/aws&quot;] (close)&#45;&gt;[root] aws_elb.first_load_balancer (expand)</title>
<path fill="none" stroke="black" d="M1047.78,-290.92C1162.09,-280.65 1319.58,-266.12 1458,-252 1469.96,-250.78 1482.44,-249.46 1494.89,-248.12"/>
<polygon fill="black" stroke="black" points="1495.29,-251.6 1504.85,-247.04 1494.53,-244.64 1495.29,-251.6"/>
</g>
<!-- [root] provider[&quot;registry.terraform.io/hashicorp/aws&quot;] (close)&#45;&gt;[root] aws_instance.second_ec2 (expand) -->
<g id="edge28" class="edge">
<title>[root] provider[&quot;registry.terraform.io/hashicorp/aws&quot;] (close)&#45;&gt;[root] aws_instance.second_ec2 (expand)</title>
<path fill="none" stroke="black" d="M728.56,-290.92C614.01,-280.63 455.92,-266.06 317,-252 302.09,-250.49 286.37,-248.84 270.9,-247.18"/>
<polygon fill="black" stroke="black" points="271.1,-243.68 260.78,-246.08 270.35,-250.64 271.1,-243.68"/>
</g>
<!-- [root] provider[&quot;registry.terraform.io/hashicorp/aws&quot;] (close)&#45;&gt;[root] aws_s3_bucket_policy.allow_elb_logging (expand) -->
<g id="edge29" class="edge">
<title>[root] provider[&quot;registry.terraform.io/hashicorp/aws&quot;] (close)&#45;&gt;[root] aws_s3_bucket_policy.allow_elb_logging (expand)</title>
<path fill="none" stroke="black" d="M982.29,-288.94C1043.82,-278.46 1124.38,-264.74 1188.85,-253.76"/>
<polygon fill="black" stroke="black" points="1189.78,-257.15 1199.05,-252.02 1188.61,-250.25 1189.78,-257.15"/>
</g>
<!-- [root] provider[&quot;registry.terraform.io/hashicorp/aws&quot;] (close)&#45;&gt;[root] aws_security_group.allow_tls (expand) -->
<g id="edge30" class="edge">
<title>[root] provider[&quot;registry.terraform.io/hashicorp/aws&quot;] (close)&#45;&gt;[root] aws_security_group.allow_tls (expand)</title>
<path fill="none" stroke="black" d="M840.1,-288.23C811.94,-278.38 776.14,-265.85 746.35,-255.42"/>
<polygon fill="black" stroke="black" points="747.5,-252.12 736.9,-252.12 745.19,-258.72 747.5,-252.12"/>
</g>
<!-- [root] provider[&quot;registry.terraform.io/hashicorp/aws&quot;] (close)&#45;&gt;[root] aws_security_group.allow_tls_dinamically (expand) -->
<g id="edge31" class="edge">
<title>[root] provider[&quot;registry.terraform.io/hashicorp/aws&quot;] (close)&#45;&gt;[root] aws_security_group.allow_tls_dinamically (expand)</title>
<path fill="none" stroke="black" d="M909.51,-287.7C920.46,-278.88 933.95,-268.03 945.82,-258.47"/>
<polygon fill="black" stroke="black" points="948.14,-261.1 953.74,-252.1 943.76,-255.65 948.14,-261.1"/>
</g>
<!-- [root] root -->
<g id="node25" class="node">
<title>[root] root</title>
<ellipse fill="none" stroke="black" cx="888" cy="-378" rx="58.49" ry="18"/>
<text text-anchor="middle" x="888" y="-374.3" font-family="Times,serif" font-size="14.00">[root] root</text>
</g>
<!-- [root] root&#45;&gt;[root] var.instance_type -->
<g id="edge36" class="edge">
<title>[root] root&#45;&gt;[root] var.instance_type</title>
<path fill="none" stroke="black" d="M946.11,-374.96C1060.35,-370.38 1322.3,-357.11 1551.26,-324.15"/>
<polygon fill="black" stroke="black" points="1552.06,-327.57 1561.45,-322.67 1551.05,-320.64 1552.06,-327.57"/>
</g>
<!-- [root] root&#45;&gt;[root] output.arns (expand) -->
<g id="edge32" class="edge">
<title>[root] root&#45;&gt;[root] output.arns (expand)</title>
<path fill="none" stroke="black" d="M832.37,-372.38C729.01,-363.69 500.35,-343.98 308,-324 295.68,-322.72 282.79,-321.31 269.98,-319.88"/>
<polygon fill="black" stroke="black" points="270.07,-316.37 259.74,-318.72 269.28,-323.32 270.07,-316.37"/>
</g>
<!-- [root] root&#45;&gt;[root] output.eip (expand) -->
<g id="edge33" class="edge">
<title>[root] root&#45;&gt;[root] output.eip (expand)</title>
<path fill="none" stroke="black" d="M837.1,-368.9C764.6,-357.37 630.41,-336.02 540.16,-321.66"/>
<polygon fill="black" stroke="black" points="540.63,-318.19 530.2,-320.08 539.53,-325.11 540.63,-318.19"/>
</g>
<!-- [root] root&#45;&gt;[root] output.mys3bucket (expand) -->
<g id="edge34" class="edge">
<title>[root] root&#45;&gt;[root] output.mys3bucket (expand)</title>
<path fill="none" stroke="black" d="M939.69,-369.51C1016.82,-358.33 1163.74,-337.04 1264.48,-322.44"/>
<polygon fill="black" stroke="black" points="1265,-325.9 1274.39,-321 1263.99,-318.97 1265,-325.9"/>
</g>
<!-- [root] root&#45;&gt;[root] provider[&quot;registry.terraform.io/hashicorp/aws&quot;] (close) -->
<g id="edge35" class="edge">
<title>[root] root&#45;&gt;[root] provider[&quot;registry.terraform.io/hashicorp/aws&quot;] (close)</title>
<path fill="none" stroke="black" d="M888,-359.7C888,-351.98 888,-342.71 888,-334.11"/>
<polygon fill="black" stroke="black" points="891.5,-334.1 888,-324.1 884.5,-334.1 891.5,-334.1"/>
</g>
</g>
</svg>
